<svg xmlns="http://www.w3.org/2000/svg" version="1.0" width="1300.000000pt" height="800.000000pt" viewBox="0 0 1300.000000 800.000000" preserveAspectRatio="xMidYMid meet">

<g transform="translate(0.000000,800.000000) scale(0.100000,-0.100000)" fill="#009916" stroke="none">
<path d="M6483 7388 c-33 -101 -263 -705 -315 -828 -34 -80 -160 -341 -279 -580 -485 -970 -594 -1311 -592 -1865 2 -380 61 -722 188 -1094 112 -325 254 -595 438 -831 55 -70 266 -290 279 -290 4 0 -18 39 -48 88 -299 475 -466 1111 -466 1772 0 517 54 752 292 1261 84 179 508 979 520 979 7 0 316 -567 427 -785 311 -610 386 -891 386 -1445 0 -268 -8 -367 -49 -620 -73 -446 -213 -836 -414 -1156 -32 -52 -55 -94 -51 -94 13 0 233 230 283 296 389 510 618 1217 621 1919 2 553 -105 889 -598 1880 -250 503 -289 589 -415 930 -167 452 -183 495 -190 495 -4 0 -11 -15 -17 -32z" fill="#009916"/>
<path d="M4650 7083 c-51 -229 -94 -386 -175 -631 -131 -403 -165 -558 -165 -768 0 -171 30 -314 96 -461 l26 -58 24 113 c51 248 101 395 252 750 83 194 182 462 182 494 0 7 5 30 11 51 l10 38 52 -43 c142 -116 336 -323 463 -492 35 -47 60 -73 62 -64 6 29 -37 196 -77 303 -88 234 -264 491 -444 648 -73 63 -277 217 -288 217 -4 0 -17 -44 -29 -97z" fill="#009916"/>
<path d="M8186 7084 c-348 -259 -581 -607 -662 -987 -24 -116 -20 -117 60 -11 126 169 302 357 453 482 l52 43 10 -43 c28 -112 118 -363 201 -558 51 -118 113 -271 137 -340 43 -122 104 -351 118 -444 4 -25 11 -46 15 -46 8 0 58 113 79 181 44 139 53 375 21 566 -26 150 -42 209 -145 528 -84 259 -119 384 -170 608 -15 64 -30 117 -33 117 -4 0 -65 -43 -136 -96z" fill="#009916"/>
<path d="M2268 5603 c-82 -2 -148 -6 -148 -8 0 -3 37 -80 81 -172 187 -387 217 -455 414 -953 283 -717 468 -1074 738 -1435 531 -707 1337 -1187 2322 -1384 125 -25 343 -62 364 -61 3 0 -111 60 -254 133 -773 396 -1192 682 -1586 1083 -398 406 -639 801 -997 1634 -152 353 -210 485 -266 599 -20 41 -34 76 -33 78 7 6 240 -28 356 -52 646 -137 1215 -475 1661 -986 104 -120 104 -120 75 -54 -146 335 -432 704 -725 939 -423 338 -953 557 -1510 625 -109 13 -305 19 -492 14z" fill="#009916"/>
<path d="M10395 5603 c-241 -14 -552 -78 -795 -161 -711 -244 -1294 -758 -1582 -1392 l-38 -85 47 55 c89 104 318 332 418 416 396 334 910 569 1431 653 154 25 224 33 224 26 0 -3 -17 -40 -39 -83 -36 -72 -88 -190 -341 -772 -323 -742 -603 -1165 -1044 -1579 -354 -331 -764 -601 -1441 -948 -305 -157 -301 -150 -70 -112 461 77 881 212 1269 408 614 311 1081 746 1435 1336 180 299 295 547 551 1188 169 424 236 577 371 849 51 103 91 189 88 191 -6 6 -422 14 -484 10z" fill="#009916"/>
<path d="M916 4383 l-38 -4 5 -262 c5 -268 14 -347 57 -506 106 -389 347 -700 743 -958 90 -59 295 -173 310 -173 4 0 -34 48 -83 108 -299 356 -526 762 -610 1088 -27 102 -45 276 -36 337 l7 47 102 0 c118 0 324 -21 505 -50 123 -20 402 -79 471 -99 19 -6 36 -9 38 -7 8 8 -135 121 -229 183 -230 151 -512 252 -806 289 -106 13 -340 17 -436 7z" fill="#009916"/>
<path d="M11635 4375 c-268 -35 -561 -138 -772 -272 -71 -44 -211 -152 -238 -183 l-20 -23 20 6 c248 77 758 156 1002 157 l101 0 7 -50 c4 -27 4 -84 0 -127 -35 -387 -285 -874 -700 -1360 -20 -24 -34 -43 -31 -43 13 0 130 62 234 125 328 194 578 450 716 730 124 252 166 469 166 856 l0 186 -52 7 c-85 10 -325 5 -433 -9z" fill="#009916"/>
<path d="M2988 2480 c-247 -23 -426 -87 -815 -293 -437 -233 -687 -311 -1253 -392 -140 -20 -291 -42 -335 -49 l-79 -12 284 -128 c374 -169 479 -222 728 -368 543 -318 764 -427 1072 -527 769 -249 1535 -162 2311 263 202 111 497 313 649 446 l35 31 -40 -17 c-676 -279 -1093 -405 -1525 -459 -530 -67 -1043 13 -1560 243 -163 72 -505 248 -718 369 l-42 24 142 72 c180 91 292 165 541 356 221 171 329 242 462 305 88 42 265 106 335 121 30 7 32 9 15 16 -24 9 -90 9 -207 -1z" fill="#009916"/>
<path d="M9806 2482 c-14 -6 -3 -13 50 -27 260 -69 456 -176 774 -425 216 -168 359 -262 527 -346 139 -70 143 -73 121 -87 -55 -35 -513 -275 -618 -325 -656 -309 -1197 -386 -1884 -266 -305 53 -718 181 -1151 359 -208 85 -211 87 -195 73 809 -683 1734 -979 2581 -827 457 82 775 217 1471 627 115 67 253 144 307 172 83 41 600 279 681 312 29 12 28 13 -390 73 -565 81 -819 161 -1254 392 -334 178 -501 244 -696 277 -106 18 -299 28 -324 18z" fill="#009916"/>
</g>
</svg>